<svg width="124" height="27" viewBox="0 0 124 27" fill="none" xmlns="http://www.w3.org/2000/svg">
<path d="M18.4158 22.86H9.41584L8.04784 27H0.631836L9.88384 1.61996H18.0198L27.2358 27H19.7838L18.4158 22.86ZM16.6518 17.46L13.9158 9.25196L11.2158 17.46H16.6518Z" fill="black" fill-opacity="0.25"/>
<path d="M36.5916 1.61996V27H29.5356V1.61996H36.5916Z" fill="black" fill-opacity="0.25"/>
<path d="M53.4618 27L48.4218 17.64H47.6658V27H40.6098V1.61996H51.7338C53.7738 1.61996 55.5018 1.97996 56.9178 2.69996C58.3338 3.39596 59.4018 4.36796 60.1218 5.61596C60.8418 6.83996 61.2018 8.21996 61.2018 9.75596C61.2018 11.484 60.7218 13.008 59.7618 14.328C58.8258 15.624 57.4458 16.548 55.6218 17.1L61.3458 27H53.4618ZM47.6658 12.816H51.1578C52.1178 12.816 52.8378 12.588 53.3178 12.132C53.7978 11.676 54.0378 11.016 54.0378 10.152C54.0378 9.33596 53.7858 8.69996 53.2818 8.24396C52.8018 7.76396 52.0938 7.52396 51.1578 7.52396H47.6658V12.816Z" fill="black" fill-opacity="0.25"/>
<path d="M78.0119 22.68V16.848L89.0639 1.07996H96.8039V16.56H99.5759V22.68H96.8039V27H89.6759V22.68H78.0119ZM90.2159 9.03596L85.2479 16.56H90.2159V9.03596Z" fill="black" fill-opacity="0.25"/>
<path d="M121.622 6.91196H110.822V10.908C111.278 10.428 111.902 10.044 112.694 9.75596C113.486 9.46796 114.362 9.32396 115.322 9.32396C117.05 9.32396 118.49 9.71996 119.642 10.512C120.818 11.304 121.682 12.348 122.234 13.644C122.786 14.94 123.062 16.356 123.062 17.892C123.062 20.724 122.258 22.956 120.65 24.588C119.042 26.196 116.81 27 113.954 27C111.962 27 110.234 26.664 108.77 25.992C107.33 25.296 106.226 24.336 105.458 23.112C104.69 21.888 104.294 20.484 104.27 18.9H111.146C111.218 19.452 111.458 19.932 111.866 20.34C112.274 20.748 112.874 20.952 113.666 20.952C114.506 20.952 115.142 20.664 115.574 20.088C116.006 19.512 116.222 18.744 116.222 17.784C116.222 16.848 115.994 16.14 115.538 15.66C115.082 15.156 114.422 14.904 113.558 14.904C112.91 14.904 112.382 15.072 111.974 15.408C111.59 15.72 111.362 16.116 111.29 16.596H104.414V0.68396H121.622V6.91196Z" fill="black" fill-opacity="0.25"/>
</svg>
