<svg width="156" height="47" viewBox="0 0 156 47" fill="none" xmlns="http://www.w3.org/2000/svg">
<g opacity="0.7">
<path d="M30.1551 5.83201L33.0351 5.76002C34.5711 5.76002 36.1551 6.02401 37.7871 6.55201C40.8591 7.51202 42.3951 9.60002 42.3951 12.816C42.3951 14.976 41.5791 17.112 39.9471 19.224C37.6911 22.008 34.7631 23.808 31.1631 24.624C31.0671 24.624 31.0191 24.696 31.0191 24.84C31.0191 24.984 31.0671 25.056 31.1631 25.056C31.2591 25.056 31.4751 25.08 31.8111 25.128C32.1951 25.176 32.5791 25.248 32.9631 25.344C33.3951 25.392 33.7551 25.44 34.0431 25.488C35.8191 25.872 37.2351 26.616 38.2911 27.72C39.3951 28.824 39.9471 30.24 39.9471 31.968C39.9471 34.896 38.8671 37.512 36.7071 39.816C32.7231 44.088 27.4911 46.224 21.0111 46.224C16.6431 46.224 13.0431 45.48 10.2111 43.992C9.4911 43.608 8.7711 43.416 8.0511 43.416C7.3311 43.416 6.7551 43.536 6.3231 43.776C5.8911 43.968 5.1711 44.376 4.1631 45C2.6271 45.912 1.5711 46.368 0.995104 46.368C0.419104 46.368 0.131104 46.224 0.131104 45.936C0.131104 45.84 0.179104 45.768 0.275104 45.72C2.2431 45.384 3.7791 44.232 4.8831 42.264C6.5631 39.432 9.2991 34.536 13.0911 27.576C16.9311 20.568 19.4031 15.936 20.5071 13.68C21.6111 11.376 22.2591 10.032 22.4511 9.64801C23.0751 8.49601 24.4911 7.53601 26.6991 6.76801C25.9791 6.72002 24.7311 6.69602 22.9551 6.69602C21.1791 6.69602 18.4671 7.03202 14.8191 7.70402C9.8271 8.61602 7.3311 10.608 7.3311 13.68C7.3311 14.832 7.7151 15.648 8.4831 16.128C8.7231 16.224 8.6991 16.368 8.4111 16.56C8.1711 16.704 7.9071 16.704 7.6191 16.56C7.3311 16.368 6.8751 15.816 6.2511 14.904C5.2911 13.464 4.8111 12.216 4.8111 11.16C4.8111 10.104 5.0751 9.19202 5.6031 8.42402C6.1791 7.60801 7.2831 7.03201 8.9151 6.69602C11.3631 6.12001 14.0271 5.83201 16.9071 5.83201C17.0031 5.83201 17.0751 5.83201 17.1231 5.83201L27.8511 5.76002C28.5711 5.80801 29.3391 5.83201 30.1551 5.83201ZM32.2431 22.824C33.5871 22.296 34.6911 21.504 35.5551 20.448C36.4671 19.344 37.1871 18.048 37.7151 16.56C38.2911 15.072 38.5791 13.848 38.5791 12.888C38.5791 9.38401 37.1391 7.41601 34.2591 6.98402C33.8271 6.93601 33.2991 6.91201 32.6751 6.91201C30.1791 6.91201 28.4751 7.48801 27.5631 8.64002C26.6511 9.74402 25.7151 11.112 24.7551 12.744C23.8431 14.328 23.0751 15.72 22.4511 16.92C21.8271 18.072 21.0111 19.656 20.0031 21.672C19.0431 23.64 17.7231 26.256 16.0431 29.52C14.3631 32.784 12.7551 35.952 11.2191 39.024C10.9791 39.552 10.8591 40.08 10.8591 40.608C10.8591 41.664 11.4351 42.624 12.5871 43.488C14.5551 44.64 16.5951 45.216 18.7071 45.216C21.0591 45.216 23.5311 44.712 26.1231 43.704C28.7631 42.696 31.0191 41.064 32.8911 38.808C34.8111 36.504 35.7711 33.864 35.7711 30.888C35.7711 29.016 35.0751 27.696 33.6831 26.928C32.2911 26.112 30.8511 25.704 29.3631 25.704C26.4351 25.704 23.3391 26.136 20.0751 27C20.0271 27 20.0031 26.952 20.0031 26.856C20.0031 26.616 20.3391 26.232 21.0111 25.704C21.6831 25.128 22.1631 24.696 22.4511 24.408C22.7391 24.12 23.0751 23.976 23.4591 23.976C25.5231 23.976 27.1791 23.904 28.4271 23.76C29.6751 23.616 30.9471 23.304 32.2431 22.824Z" fill="black" fill-opacity="0.7"/>
<path d="M68.9288 0.864014C70.1288 0.864014 70.7288 1.63201 70.7288 3.16801C70.7288 5.71202 68.6408 9.81602 64.4648 15.48C60.9128 20.424 55.9688 25.752 49.6328 31.464C48.3848 33.768 47.4488 36.24 46.8248 38.88C46.6808 39.408 46.6088 39.912 46.6088 40.392C46.6088 42.264 47.4968 43.2 49.2728 43.2C49.5608 43.2 49.8728 43.176 50.2088 43.128C52.2248 42.744 55.4408 39.816 59.8568 34.344C59.9528 34.44 60.0008 34.656 60.0008 34.992C60.0008 35.28 59.3768 36.216 58.1288 37.8C56.8808 39.336 55.9448 40.416 55.3208 41.04C52.5848 43.776 50.1128 45.144 47.9048 45.144C45.4088 45.144 44.1608 43.944 44.1608 41.544C44.1608 39.624 44.9288 36.984 46.4648 33.624L43.4408 36.936C43.1048 37.416 42.9368 37.368 42.9368 36.792C42.9368 36.408 43.1048 36 43.4408 35.568C43.8248 35.088 44.5688 34.2 45.6728 32.904C46.7768 31.608 47.5928 30.648 48.1208 30.024C48.7928 28.776 50.1608 26.064 52.2248 21.888C56.5928 13.056 59.8568 7.20002 62.0168 4.32002C62.5448 4.12802 63.5768 3.50402 65.1128 2.44801C66.6968 1.39201 67.9688 0.864014 68.9288 0.864014ZM63.2408 14.76C66.6488 9.19202 68.3528 5.28002 68.3528 3.02402C68.3528 2.44801 68.1368 2.16001 67.7048 2.16001C66.1208 2.16001 63.0008 6.33601 58.3448 14.688C54.4088 21.792 51.9128 26.424 50.8568 28.584C55.6088 24.648 59.7368 20.04 63.2408 14.76Z" fill="black" fill-opacity="0.7"/>
<path d="M76.1192 27.792C76.1192 30.384 74.8232 33.552 72.2312 37.296C71.2232 38.64 70.3112 39.696 69.4952 40.464C72.6632 40.464 75.5912 38.688 78.2792 35.136C78.5192 34.896 78.6392 34.992 78.6392 35.424C78.6392 35.808 78.5432 36.12 78.3512 36.36C75.9032 39.768 73.1192 41.472 69.9992 41.472C69.5672 41.472 69.1352 41.448 68.7032 41.4C66.0152 43.896 62.9912 45.144 59.6312 45.144C57.6632 45.144 56.6792 44.304 56.6792 42.624C56.6792 39.888 57.9992 36.696 60.6392 33.048C62.3192 30.648 64.3592 28.752 66.7592 27.36C69.3032 25.776 71.4632 24.984 73.2392 24.984C75.1592 24.984 76.1192 25.92 76.1192 27.792ZM72.6632 27.864C72.6632 26.712 72.2312 26.136 71.3672 26.136C71.0792 26.136 70.5272 26.304 69.7112 26.64C68.8952 26.928 67.8632 27.72 66.6152 29.016C65.4152 30.264 64.2632 31.872 63.1592 33.84C61.0952 37.248 60.0632 39.792 60.0632 41.472C60.0632 43.104 60.4952 43.92 61.3592 43.92C62.0312 43.92 62.7752 43.704 63.5912 43.272C64.4072 42.792 65.0552 42.312 65.5352 41.832C67.0232 40.248 68.5832 38.112 70.2152 35.424C71.8472 32.688 72.6632 30.168 72.6632 27.864Z" fill="black" fill-opacity="0.7"/>
<path d="M99.3499 26.352C99.3499 26.976 98.9419 27.864 98.1259 29.016C97.3579 30.168 96.1819 32.352 94.5979 35.568C93.0139 38.736 92.2219 40.752 92.2219 41.616C92.2219 42.432 92.5579 42.84 93.2299 42.84C93.9499 42.84 94.8619 42.408 95.9659 41.544C97.1179 40.632 98.1259 39.672 98.9899 38.664C99.9019 37.656 101.102 36.24 102.59 34.416C102.686 34.56 102.734 34.776 102.734 35.064C102.734 35.352 102.422 35.904 101.798 36.72C99.3499 40.032 97.2859 42.336 95.6059 43.632C93.9259 44.928 92.4139 45.576 91.0699 45.576C89.5339 45.576 88.7659 44.832 88.7659 43.344C88.7659 41.808 89.5339 39.504 91.0699 36.432C92.6539 33.312 93.9259 30.696 94.8859 28.584C95.3659 27.576 95.0299 27.384 93.8779 28.008C88.4059 31.416 84.1579 37.128 81.1339 45.144C80.8459 45.144 80.2699 45.288 79.4059 45.576C78.5899 45.912 78.1099 46.08 77.9659 46.08C77.7739 46.08 77.7739 45.84 77.9659 45.36C78.2059 44.928 78.6139 43.992 79.1899 42.552C79.8139 41.112 80.5579 39.288 81.4219 37.08C83.1019 32.856 84.2299 30.072 84.8059 28.728C82.2619 31.464 79.9579 34.2 77.8939 36.936C77.5579 37.416 77.3899 37.368 77.3899 36.792C77.3899 36.408 77.5099 36.072 77.7499 35.784C81.1579 31.56 83.7739 28.128 85.5979 25.488C87.9979 25.152 89.3899 24.816 89.7739 24.48C90.1579 24.144 90.3979 23.976 90.4939 23.976C90.5899 23.976 90.6379 24.072 90.6379 24.264C90.6859 24.456 90.5419 24.744 90.2059 25.128C89.9179 25.464 88.0459 28.848 84.5899 35.28C86.8939 32.256 89.5819 29.592 92.6539 27.288C94.6219 25.848 96.2299 25.128 97.4779 25.128C98.7259 25.128 99.3499 25.536 99.3499 26.352Z" fill="black" fill-opacity="0.7"/>
<path d="M141.26 5.97601C141.212 5.97601 141.14 5.92801 141.044 5.83201C140.852 4.68001 140.132 3.86402 138.884 3.38402C138.308 3.19202 137.684 3.09601 137.012 3.09601C136.34 3.09601 135.596 3.24001 134.78 3.52801C132.476 4.34401 129.932 7.22402 127.148 12.168C124.364 17.112 121.484 22.872 118.508 29.448C118.46 29.496 117.884 30.672 116.78 32.976C114.332 38.064 113.108 41.04 113.108 41.904C113.108 42.72 113.396 43.128 113.972 43.128C115.028 43.128 116.66 42.048 118.868 39.888C121.124 37.68 122.78 35.832 123.836 34.344C123.932 34.44 123.98 34.656 123.98 34.992C123.98 35.28 123.644 35.856 122.972 36.72C118.7 42.384 114.74 45.216 111.092 45.216C109.94 45.216 109.364 44.76 109.364 43.848C109.364 42.168 110.3 39.864 112.172 36.936C110.492 38.712 108.74 40.392 106.916 41.976C104.324 44.088 102.14 45.144 100.364 45.144C99.4995 45.144 99.0675 44.616 99.0675 43.56C99.0675 43.32 99.0915 43.152 99.1395 43.056C99.4755 40.368 100.58 37.488 102.452 34.416C104.372 31.344 106.46 28.944 108.716 27.216C110.252 25.968 112.1 25.344 114.26 25.344C115.364 25.344 116.468 25.344 117.572 25.344C118.34 24.048 119.564 21.816 121.244 18.648C122.924 15.432 124.124 13.224 124.844 12.024C129.212 4.63201 134.036 0.936013 139.316 0.936013C139.988 0.936013 140.564 1.12801 141.044 1.51201C141.572 1.89601 141.812 2.42402 141.764 3.09601L141.62 5.68802C141.62 5.88001 141.5 5.97601 141.26 5.97601ZM116.132 27.648C116.132 26.736 115.508 26.28 114.26 26.28C113.06 26.28 111.716 26.976 110.228 28.368C108.74 29.76 107.108 32.016 105.332 35.136C103.604 38.208 102.74 40.44 102.74 41.832C102.74 42.408 102.932 42.696 103.316 42.696C104.708 42.696 107.18 40.584 110.732 36.36C114.332 32.088 116.132 29.184 116.132 27.648Z" fill="black" fill-opacity="0.7"/>
<path d="M133.408 40.752C132.496 41.76 131.224 42.768 129.592 43.776C128.008 44.736 126.544 45.216 125.2 45.216C123.904 45.216 123.256 44.76 123.256 43.848C123.256 42.984 123.496 42.024 123.976 40.968C124.312 40.2 126.232 36.12 129.736 28.728C127.192 31.464 124.888 34.2 122.824 36.936C122.488 37.416 122.32 37.368 122.32 36.792C122.32 36.408 122.44 36.072 122.68 35.784C126.088 31.56 128.704 28.128 130.528 25.488C132.928 25.152 134.368 24.768 134.848 24.336C135.328 23.904 135.592 23.88 135.64 24.264C135.64 24.456 135.52 24.696 135.28 24.984C135.088 25.224 133.144 28.824 129.448 35.784C127.816 38.856 127 40.968 127 42.12C127 42.792 127.336 43.128 128.008 43.128C129.496 43.128 132.184 40.824 136.072 36.216L137.656 34.416C138.232 34.992 136.816 37.104 133.408 40.752ZM137.44 17.496C136.288 17.496 135.712 16.872 135.712 15.624C135.712 15.048 136.024 14.544 136.648 14.112C137.32 13.68 137.896 13.464 138.376 13.464C138.904 13.464 139.312 13.68 139.6 14.112C139.888 14.496 140.032 14.808 140.032 15.048C140.032 15.912 139.72 16.536 139.096 16.92C138.472 17.304 137.92 17.496 137.44 17.496Z" fill="black" fill-opacity="0.7"/>
<path d="M139.915 36.432C139.195 38.304 138.835 40.056 138.835 41.688C138.835 43.272 139.819 44.064 141.787 44.064C142.507 44.064 143.443 43.848 144.595 43.416C146.467 42.792 148.411 41.592 150.427 39.816C152.443 38.04 154.099 36.312 155.395 34.632C155.539 34.776 155.611 34.968 155.611 35.208C155.611 35.448 155.443 35.808 155.107 36.288C153.331 38.736 151.123 40.896 148.483 42.768C145.843 44.64 143.155 45.576 140.419 45.576C136.867 45.576 135.091 44.28 135.091 41.688C135.091 39.624 136.195 36.768 138.403 33.12C139.651 31.152 141.427 29.328 143.731 27.648C146.035 25.92 148.243 25.056 150.355 25.056C152.467 25.056 153.523 26.064 153.523 28.08C153.523 30.192 152.683 31.8 151.003 32.904C149.371 33.96 147.499 34.824 145.387 35.496C143.323 36.12 141.499 36.432 139.915 36.432ZM140.491 34.992C140.779 34.992 141.307 34.992 142.075 34.992C142.891 34.992 143.851 34.824 144.955 34.488C147.691 33.672 149.467 32.136 150.283 29.88C150.523 29.208 150.643 28.584 150.643 28.008C150.643 27.384 150.451 26.952 150.067 26.712C149.683 26.424 149.347 26.28 149.059 26.28C145.939 26.328 143.083 29.232 140.491 34.992Z" fill="black" fill-opacity="0.7"/>
</g>
</svg>
