<svg width="88" height="27" viewBox="0 0 88 27" fill="none" xmlns="http://www.w3.org/2000/svg">
<path d="M12.6833 13.076C13.5953 13.22 14.4233 13.592 15.1673 14.192C15.9353 14.792 16.5353 15.536 16.9673 16.424C17.4233 17.312 17.6513 18.26 17.6513 19.268C17.6513 20.54 17.3273 21.692 16.6793 22.724C16.0313 23.732 15.0833 24.536 13.8353 25.136C12.6113 25.712 11.1593 26 9.47926 26H0.119263V0.907996H9.11926C10.8233 0.907996 12.2753 1.196 13.4753 1.772C14.6753 2.324 15.5753 3.08 16.1753 4.04C16.7753 5 17.0753 6.07999 17.0753 7.27999C17.0753 8.768 16.6673 10.004 15.8513 10.988C15.0593 11.948 14.0033 12.644 12.6833 13.076ZM3.39526 11.744H8.90326C10.4393 11.744 11.6273 11.384 12.4673 10.664C13.3073 9.944 13.7273 8.948 13.7273 7.676C13.7273 6.404 13.3073 5.408 12.4673 4.688C11.6273 3.968 10.4153 3.608 8.83126 3.608H3.39526V11.744ZM9.19126 23.3C10.8233 23.3 12.0953 22.916 13.0073 22.148C13.9193 21.38 14.3753 20.312 14.3753 18.944C14.3753 17.552 13.8953 16.46 12.9353 15.668C11.9753 14.852 10.6913 14.444 9.08326 14.444H3.39526V23.3H9.19126Z" fill="black" fill-opacity="0.25"/>
<path d="M53.0494 1.088V26H49.7734V7.424L41.4934 26H39.1894L30.8734 7.388V26H27.5974V1.088H31.1254L40.3414 21.68L49.5574 1.088H53.0494Z" fill="black" fill-opacity="0.25"/>
<path d="M83.0132 8.18C82.3172 6.716 81.3092 5.58799 79.9892 4.79599C78.6692 3.98 77.1332 3.572 75.3812 3.572C73.6292 3.572 72.0452 3.98 70.6292 4.79599C69.2372 5.58799 68.1332 6.74 67.3172 8.252C66.5252 9.74 66.1292 11.468 66.1292 13.436C66.1292 15.404 66.5252 17.132 67.3172 18.62C68.1332 20.108 69.2372 21.26 70.6292 22.076C72.0452 22.868 73.6292 23.264 75.3812 23.264C77.8292 23.264 79.8452 22.532 81.4292 21.068C83.0132 19.604 83.9372 17.624 84.2012 15.128H74.1932V12.464H87.6932V14.984C87.5012 17.048 86.8532 18.944 85.7492 20.672C84.6452 22.376 83.1932 23.732 81.3932 24.74C79.5932 25.724 77.5892 26.216 75.3812 26.216C73.0532 26.216 70.9292 25.676 69.0092 24.596C67.0892 23.492 65.5652 21.968 64.4372 20.024C63.3332 18.08 62.7812 15.884 62.7812 13.436C62.7812 10.988 63.3332 8.792 64.4372 6.848C65.5652 4.88 67.0892 3.356 69.0092 2.276C70.9292 1.172 73.0532 0.619995 75.3812 0.619995C78.0452 0.619995 80.3972 1.28 82.4372 2.6C84.5012 3.92 86.0012 5.78 86.9372 8.18H83.0132Z" fill="black" fill-opacity="0.25"/>
</svg>
