<svg width="217" height="47" viewBox="0 0 217 47" fill="none" xmlns="http://www.w3.org/2000/svg">
<path d="M30.991 5.83204L33.871 5.76004C35.407 5.76004 36.991 6.02404 38.623 6.55204C41.695 7.51204 43.231 9.60004 43.231 12.816C43.231 14.976 42.415 17.112 40.783 19.224C38.527 22.008 35.599 23.808 31.999 24.624C31.903 24.624 31.855 24.696 31.855 24.84C31.855 24.984 31.903 25.056 31.999 25.056C32.095 25.056 32.311 25.08 32.647 25.128C33.031 25.176 33.415 25.248 33.799 25.344C34.231 25.392 34.591 25.44 34.879 25.488C36.655 25.872 38.071 26.616 39.127 27.72C40.231 28.824 40.783 30.24 40.783 31.968C40.783 34.896 39.703 37.512 37.543 39.816C33.559 44.088 28.327 46.224 21.847 46.224C17.479 46.224 13.879 45.48 11.047 43.992C10.327 43.608 9.60704 43.416 8.88704 43.416C8.16704 43.416 7.59104 43.536 7.15904 43.776C6.72704 43.968 6.00704 44.376 4.99904 45C3.46304 45.912 2.40704 46.368 1.83104 46.368C1.25504 46.368 0.967041 46.224 0.967041 45.936C0.967041 45.84 1.01504 45.768 1.11104 45.72C3.07904 45.384 4.61504 44.232 5.71904 42.264C7.39904 39.432 10.135 34.536 13.927 27.576C17.767 20.568 20.239 15.936 21.343 13.68C22.447 11.376 23.095 10.032 23.287 9.64804C23.911 8.49604 25.327 7.53604 27.535 6.76804C26.815 6.72004 25.567 6.69604 23.791 6.69604C22.015 6.69604 19.303 7.03204 15.655 7.70404C10.663 8.61604 8.16704 10.608 8.16704 13.68C8.16704 14.832 8.55104 15.648 9.31904 16.128C9.55904 16.224 9.53504 16.368 9.24704 16.56C9.00704 16.704 8.74304 16.704 8.45504 16.56C8.16704 16.368 7.71104 15.816 7.08704 14.904C6.12704 13.464 5.64704 12.216 5.64704 11.16C5.64704 10.104 5.91104 9.19204 6.43904 8.42404C7.01504 7.60804 8.11904 7.03204 9.75104 6.69604C12.199 6.12004 14.863 5.83204 17.743 5.83204C17.839 5.83204 17.911 5.83204 17.959 5.83204L28.687 5.76004C29.407 5.80804 30.175 5.83204 30.991 5.83204ZM33.079 22.824C34.423 22.296 35.527 21.504 36.391 20.448C37.303 19.344 38.023 18.048 38.551 16.56C39.127 15.072 39.415 13.848 39.415 12.888C39.415 9.38404 37.975 7.41604 35.095 6.98404C34.663 6.93604 34.135 6.91204 33.511 6.91204C31.015 6.91204 29.311 7.48804 28.399 8.64004C27.487 9.74404 26.551 11.112 25.591 12.744C24.679 14.328 23.911 15.72 23.287 16.92C22.663 18.072 21.847 19.656 20.839 21.672C19.879 23.64 18.559 26.256 16.879 29.52C15.199 32.784 13.591 35.952 12.055 39.024C11.815 39.552 11.695 40.08 11.695 40.608C11.695 41.664 12.271 42.624 13.423 43.488C15.391 44.64 17.431 45.216 19.543 45.216C21.895 45.216 24.367 44.712 26.959 43.704C29.599 42.696 31.855 41.064 33.727 38.808C35.647 36.504 36.607 33.864 36.607 30.888C36.607 29.016 35.911 27.696 34.519 26.928C33.127 26.112 31.687 25.704 30.199 25.704C27.271 25.704 24.175 26.136 20.911 27C20.863 27 20.839 26.952 20.839 26.856C20.839 26.616 21.175 26.232 21.847 25.704C22.519 25.128 22.999 24.696 23.287 24.408C23.575 24.12 23.911 23.976 24.295 23.976C26.359 23.976 28.015 23.904 29.263 23.76C30.511 23.616 31.783 23.304 33.079 22.824Z" fill="black" fill-opacity="0.7"/>
<path d="M69.5487 26.064C68.1087 26.496 66.4527 28.728 64.5807 32.76C62.7567 36.744 61.8447 39.48 61.8447 40.968C61.8447 42.408 62.2047 43.128 62.9247 43.128C63.7887 43.128 65.2047 42.36 67.1727 40.824C69.2847 39.192 71.1807 37.272 72.8607 35.064C73.2447 34.632 73.4607 34.392 73.5087 34.344C73.6527 34.632 73.7007 34.944 73.6527 35.28C73.6047 35.568 73.2927 36.048 72.7167 36.72C68.4927 42.384 64.5327 45.216 60.8367 45.216C59.1567 45.216 58.3167 44.568 58.3167 43.272C58.3167 42.408 58.6287 41.088 59.2527 39.312C59.8767 37.488 60.4527 36.072 60.9807 35.064C56.2767 41.832 51.9327 45.216 47.9487 45.216C46.7967 45.216 46.2207 44.76 46.2207 43.848C46.2207 42.696 47.1567 40.248 49.0287 36.504C49.4607 35.64 50.0367 34.464 50.7567 32.976C51.4767 31.488 51.9567 30.504 52.1967 30.024C52.4847 29.544 52.6287 29.208 52.6287 29.016C52.6287 28.776 52.5567 28.656 52.4127 28.656C52.0767 28.656 51.1407 29.352 49.6047 30.744C48.0687 32.136 46.2927 34.2 44.2767 36.936C43.9407 37.416 43.7727 37.368 43.7727 36.792C43.7727 36.408 43.8927 36.072 44.1327 35.784C46.1007 33.144 47.6847 31.152 48.8847 29.808C50.1327 28.416 50.8047 27.648 50.9007 27.504C51.0447 27.36 51.3087 27.12 51.6927 26.784C52.1247 26.4 52.4607 26.136 52.7007 25.992C53.6607 25.416 54.6687 25.128 55.7247 25.128C56.8287 25.128 57.3807 25.536 57.3807 26.352C57.3807 26.976 56.9727 27.888 56.1567 29.088C55.3407 30.288 54.0927 32.52 52.4127 35.784C50.7807 39 49.9647 41.04 49.9647 41.904C49.9647 42.72 50.3007 43.128 50.9727 43.128C51.8847 43.128 53.3247 42.192 55.2927 40.32C58.3167 37.44 61.4367 32.928 64.6527 26.784C65.0847 26.016 65.3727 25.632 65.5167 25.632H66.5247C68.0607 25.632 69.2607 25.416 70.1247 24.984C70.1727 24.936 70.2447 24.912 70.3407 24.912C70.4367 24.912 70.4847 25.008 70.4847 25.2C70.4847 25.584 70.1727 25.872 69.5487 26.064Z" fill="black" fill-opacity="0.7"/>
<path d="M112.142 5.97603C112.094 5.97603 112.022 5.92804 111.926 5.83204C111.734 4.68004 111.014 3.86404 109.766 3.38404C109.19 3.19204 108.566 3.09604 107.894 3.09604C107.222 3.09604 106.478 3.24004 105.662 3.52804C103.358 4.34404 100.814 7.22404 98.0304 12.168C95.2464 17.112 92.3664 22.872 89.3904 29.448C89.3424 29.496 88.7664 30.672 87.6624 32.976C85.2144 38.064 83.9904 41.04 83.9904 41.904C83.9904 42.72 84.2784 43.128 84.8544 43.128C85.9104 43.128 87.5424 42.048 89.7504 39.888C92.0064 37.68 93.6624 35.832 94.7184 34.344C94.8144 34.44 94.8624 34.656 94.8624 34.992C94.8624 35.28 94.5264 35.856 93.8544 36.72C89.5824 42.384 85.6224 45.216 81.9743 45.216C80.8224 45.216 80.2464 44.76 80.2464 43.848C80.2464 42.168 81.1824 39.864 83.0544 36.936C81.3744 38.712 79.6224 40.392 77.7984 41.976C75.2064 44.088 73.0224 45.144 71.2464 45.144C70.3824 45.144 69.9504 44.616 69.9504 43.56C69.9504 43.32 69.9744 43.152 70.0224 43.056C70.3584 40.368 71.4624 37.488 73.3344 34.416C75.2544 31.344 77.3424 28.944 79.5984 27.216C81.1344 25.968 82.9824 25.344 85.1424 25.344C86.2464 25.344 87.3504 25.344 88.4544 25.344C89.2224 24.048 90.4464 21.816 92.1264 18.648C93.8064 15.432 95.0064 13.224 95.7264 12.024C100.094 4.63204 104.918 0.936035 110.198 0.936035C110.87 0.936035 111.446 1.12804 111.926 1.51204C112.454 1.89604 112.694 2.42404 112.646 3.09604L112.502 5.68804C112.502 5.88004 112.382 5.97603 112.142 5.97603ZM87.0144 27.648C87.0144 26.736 86.3904 26.28 85.1424 26.28C83.9424 26.28 82.5984 26.976 81.1104 28.368C79.6224 29.76 77.9904 32.016 76.2144 35.136C74.4864 38.208 73.6224 40.44 73.6224 41.832C73.6224 42.408 73.8144 42.696 74.1984 42.696C75.5904 42.696 78.0624 40.584 81.6144 36.36C85.2144 32.088 87.0144 29.184 87.0144 27.648Z" fill="black" fill-opacity="0.7"/>
<path d="M111.418 44.856C110.698 44.328 110.338 43.368 110.338 41.976C110.434 39 110.914 35.904 111.778 32.688C111.538 33.072 111.202 33.672 110.77 34.488C110.338 35.256 110.002 35.832 109.762 36.216C106.786 40.536 104.458 43.2 102.778 44.208C100.618 45.6 98.9144 45.816 97.6664 44.856C97.0424 44.328 96.7544 43.368 96.8024 41.976C96.8024 37.848 97.5224 33.864 98.9624 30.024C98.2904 30.984 97.2584 32.376 95.8664 34.2C94.4744 35.976 93.7544 36.888 93.7064 36.936C93.3704 37.416 93.2024 37.368 93.2024 36.792C93.2024 36.408 93.3224 36.072 93.5624 35.784C96.2504 32.184 98.4824 28.992 100.258 26.208C101.986 25.968 103.114 25.608 103.642 25.128C104.17 24.648 104.434 24.6 104.434 24.984C104.434 25.176 104.362 25.368 104.218 25.56C103.354 26.856 102.37 29.304 101.266 32.904C100.162 36.504 99.6104 39.168 99.6104 40.896C99.6104 42.576 100.042 43.416 100.906 43.416C102.682 43.416 105.226 40.776 108.538 35.496C109.258 34.344 110.194 32.64 111.346 30.384C112.498 28.128 113.242 26.736 113.578 26.208C115.258 25.968 116.362 25.608 116.89 25.128C117.466 24.648 117.754 24.6 117.754 24.984C117.802 25.176 117.754 25.368 117.61 25.56C116.746 26.808 115.81 29.256 114.802 32.904C113.794 36.504 113.29 39.168 113.29 40.896C113.29 42.576 113.794 43.416 114.802 43.416C115.282 43.416 115.954 43.224 116.818 42.84C117.682 42.456 118.57 41.808 119.482 40.896C122.698 37.632 125.002 34.104 126.394 30.312C127.258 28.008 127.426 26.328 126.898 25.272C126.658 24.888 126.346 24.648 125.962 24.552C125.626 24.408 125.578 24.24 125.818 24.048C126.106 23.856 126.322 23.76 126.466 23.76C126.658 23.76 126.802 23.76 126.898 23.76C128.818 24.24 129.778 25.296 129.778 26.928C129.778 27.648 129.586 28.488 129.202 29.448C128.146 32.184 126.466 34.968 124.162 37.8C121.906 40.632 119.53 42.768 117.034 44.208C114.586 45.648 112.714 45.864 111.418 44.856Z" fill="black" fill-opacity="0.7"/>
<path d="M132.946 36.432C132.226 38.304 131.866 40.056 131.866 41.688C131.866 43.272 132.85 44.064 134.818 44.064C135.538 44.064 136.474 43.848 137.626 43.416C139.498 42.792 141.442 41.592 143.458 39.816C145.474 38.04 147.13 36.312 148.426 34.632C148.57 34.776 148.642 34.968 148.642 35.208C148.642 35.448 148.474 35.808 148.138 36.288C146.362 38.736 144.154 40.896 141.514 42.768C138.874 44.64 136.186 45.576 133.45 45.576C129.898 45.576 128.122 44.28 128.122 41.688C128.122 39.624 129.226 36.768 131.434 33.12C132.682 31.152 134.458 29.328 136.762 27.648C139.066 25.92 141.274 25.056 143.386 25.056C145.498 25.056 146.554 26.064 146.554 28.08C146.554 30.192 145.714 31.8 144.034 32.904C142.402 33.96 140.53 34.824 138.418 35.496C136.354 36.12 134.53 36.432 132.946 36.432ZM133.522 34.992C133.81 34.992 134.338 34.992 135.106 34.992C135.922 34.992 136.882 34.824 137.986 34.488C140.722 33.672 142.498 32.136 143.314 29.88C143.554 29.208 143.674 28.584 143.674 28.008C143.674 27.384 143.482 26.952 143.098 26.712C142.714 26.424 142.378 26.28 142.09 26.28C138.97 26.328 136.114 29.232 133.522 34.992Z" fill="black" fill-opacity="0.7"/>
<path d="M158.22 40.752C157.308 41.76 156.036 42.768 154.404 43.776C152.82 44.736 151.356 45.216 150.012 45.216C148.716 45.216 148.068 44.76 148.068 43.848C148.068 42.984 148.308 42.024 148.788 40.968C149.124 40.2 151.044 36.12 154.548 28.728C152.004 31.464 149.7 34.2 147.636 36.936C147.3 37.416 147.132 37.368 147.132 36.792C147.132 36.408 147.252 36.072 147.492 35.784C150.9 31.56 153.516 28.128 155.34 25.488C157.74 25.152 159.18 24.768 159.66 24.336C160.14 23.904 160.404 23.88 160.452 24.264C160.452 24.456 160.332 24.696 160.092 24.984C159.9 25.224 157.956 28.824 154.26 35.784C152.628 38.856 151.812 40.968 151.812 42.12C151.812 42.792 152.148 43.128 152.82 43.128C154.308 43.128 156.996 40.824 160.884 36.216L162.468 34.416C163.044 34.992 161.628 37.104 158.22 40.752ZM162.252 17.496C161.1 17.496 160.524 16.872 160.524 15.624C160.524 15.048 160.836 14.544 161.46 14.112C162.132 13.68 162.708 13.464 163.188 13.464C163.716 13.464 164.124 13.68 164.412 14.112C164.7 14.496 164.844 14.808 164.844 15.048C164.844 15.912 164.532 16.536 163.908 16.92C163.284 17.304 162.732 17.496 162.252 17.496Z" fill="black" fill-opacity="0.7"/>
<path d="M174.52 31.752C174.328 31.752 174.28 31.584 174.376 31.248C174.472 30.912 174.52 30.48 174.52 29.952C174.52 29.376 174.376 28.752 174.088 28.08C173.608 26.784 172.816 26.136 171.712 26.136C170.656 26.136 169.792 26.472 169.12 27.144C168.496 27.768 168.184 28.344 168.184 28.872C168.184 29.4 168.208 29.856 168.256 30.24C168.352 30.576 168.64 31.056 169.12 31.68C169.6 32.304 170.176 32.952 170.848 33.624C172.672 35.544 173.584 37.248 173.584 38.736C173.584 40.176 173.2 41.448 172.432 42.552C170.8 44.952 168.496 46.152 165.52 46.152C163.984 46.152 162.544 45.84 161.2 45.216C159.52 44.448 158.68 43.272 158.68 41.688C158.68 41.16 158.824 40.488 159.112 39.672C159.4 38.808 159.808 38.16 160.336 37.728C160.624 37.584 160.792 37.632 160.84 37.872C160.504 38.88 160.336 39.72 160.336 40.392C160.336 41.88 161.368 43.248 163.432 44.496C164.008 44.88 164.632 45.072 165.304 45.072C167.656 45.072 169.168 44.664 169.84 43.848C170.56 42.984 170.92 41.952 170.92 40.752C170.92 39.552 170.152 38.136 168.616 36.504C166.792 34.488 165.88 32.784 165.88 31.392C165.304 32.208 164.104 33.744 162.28 36C161.896 36.528 161.68 36.576 161.632 36.144C161.584 35.712 161.776 35.232 162.208 34.704C163.024 33.84 164.896 31.224 167.824 26.856C169.072 25.464 170.56 24.768 172.288 24.768C174.976 24.768 176.344 25.704 176.392 27.576C176.392 28.536 176.056 29.688 175.384 31.032C175.144 31.512 174.856 31.752 174.52 31.752Z" fill="black" fill-opacity="0.7"/>
<path d="M181.462 36.432C180.742 38.304 180.382 40.056 180.382 41.688C180.382 43.272 181.366 44.064 183.334 44.064C184.054 44.064 184.99 43.848 186.142 43.416C188.014 42.792 189.958 41.592 191.974 39.816C193.99 38.04 195.646 36.312 196.942 34.632C197.086 34.776 197.158 34.968 197.158 35.208C197.158 35.448 196.99 35.808 196.654 36.288C194.878 38.736 192.67 40.896 190.03 42.768C187.39 44.64 184.702 45.576 181.966 45.576C178.414 45.576 176.638 44.28 176.638 41.688C176.638 39.624 177.742 36.768 179.95 33.12C181.198 31.152 182.974 29.328 185.278 27.648C187.582 25.92 189.79 25.056 191.902 25.056C194.014 25.056 195.07 26.064 195.07 28.08C195.07 30.192 194.23 31.8 192.55 32.904C190.918 33.96 189.046 34.824 186.934 35.496C184.87 36.12 183.046 36.432 181.462 36.432ZM182.038 34.992C182.326 34.992 182.854 34.992 183.622 34.992C184.438 34.992 185.398 34.824 186.502 34.488C189.238 33.672 191.014 32.136 191.83 29.88C192.07 29.208 192.19 28.584 192.19 28.008C192.19 27.384 191.998 26.952 191.614 26.712C191.23 26.424 190.894 26.28 190.606 26.28C187.486 26.328 184.63 29.232 182.038 34.992Z" fill="black" fill-opacity="0.7"/>
<path d="M214.512 30.744C214.512 28.536 213.816 27.432 212.424 27.432C211.08 27.432 209.136 28.896 206.592 31.824C204.096 34.704 202.2 37.8 200.904 41.112L199.392 45.144C199.104 45.144 198.528 45.288 197.664 45.576C196.8 45.864 196.344 46.008 196.296 46.008C196.056 46.008 196.032 45.792 196.224 45.36C196.464 44.928 196.872 43.992 197.448 42.552C198.072 41.112 198.816 39.288 199.68 37.08C201.36 32.856 202.488 30.072 203.064 28.728C200.52 31.464 198.216 34.2 196.152 36.936C195.816 37.416 195.648 37.368 195.648 36.792C195.648 36.408 195.768 36.072 196.008 35.784C199.416 31.56 202.032 28.128 203.856 25.488C206.256 25.152 207.648 24.816 208.032 24.48C208.416 24.144 208.656 23.976 208.752 23.976C208.848 23.976 208.896 24.072 208.896 24.264C208.944 24.456 208.824 24.72 208.536 25.056C208.248 25.392 206.64 28.248 203.712 33.624C205.008 31.656 206.64 29.712 208.608 27.792C210.624 25.872 212.328 24.912 213.72 24.912C215.16 24.912 216.096 25.512 216.528 26.712C216.72 26.952 216.816 27.216 216.816 27.504C216.816 27.792 216.768 28.176 216.672 28.656C216.576 29.088 216.48 29.448 216.384 29.736C215.856 30.936 215.472 31.656 215.232 31.896C215.088 32.136 214.848 32.28 214.512 32.328C214.464 32.28 214.416 32.232 214.368 32.184C214.464 31.656 214.512 31.176 214.512 30.744Z" fill="black" fill-opacity="0.7"/>
</svg>
