<svg width="170" height="71" viewBox="0 0 170 71" fill="none" xmlns="http://www.w3.org/2000/svg">
<path d="M35.2705 17.352C36.0865 16.008 36.4945 14.496 36.4945 12.816C36.4945 11.136 36.2305 9.81601 35.7025 8.85601C34.7905 7.32001 33.0145 6.55201 30.3745 6.55201C25.4785 6.55201 20.7025 8.52001 16.0465 12.456C12.6385 15.48 9.83046 19.104 7.62246 23.328C5.46246 27.504 4.38246 31.248 4.38246 34.56C4.38246 37.824 5.12646 40.296 6.61446 41.976C8.15046 43.608 10.0945 44.592 12.4465 44.928C13.6945 45.12 14.9185 45.216 16.1185 45.216C19.7665 45.216 23.2225 44.568 26.4865 43.272C31.7185 41.256 35.9185 38.28 39.0865 34.344C39.5665 33.768 39.8065 33.768 39.8065 34.344C39.8065 34.68 39.6145 35.112 39.2305 35.64C36.2065 39.672 32.1505 42.744 27.0625 44.856C23.4625 46.344 19.6465 47.088 15.6145 47.088C9.08646 47.088 4.57446 45.36 2.07846 41.904C0.782461 40.128 0.13446 37.92 0.13446 35.28C0.13446 30.768 1.38246 26.376 3.87846 22.104C6.37446 17.784 9.59046 14.136 13.5265 11.16C18.5665 7.36801 24.0145 5.47201 29.8705 5.47201C32.5105 5.47201 34.7905 5.95201 36.7105 6.91201C38.6785 7.82401 39.6625 9.04801 39.6625 10.584C39.6625 11.256 39.2065 12.336 38.2945 13.824C37.4305 15.264 36.8785 16.32 36.6385 16.992C36.5425 17.328 36.1825 17.52 35.5585 17.568C35.3665 17.52 35.2705 17.448 35.2705 17.352Z" fill="black" fill-opacity="0.7"/>
<path d="M60.3512 34.344C60.4472 34.44 60.4952 34.632 60.4952 34.92C60.4952 35.208 60.1592 35.808 59.4872 36.72C55.2152 42.384 51.2552 45.216 47.6072 45.216C46.4552 45.216 45.8792 44.76 45.8792 43.848C45.8792 42.168 46.8152 39.864 48.6872 36.936C47.0072 38.712 45.0872 40.536 42.9272 42.408C40.7672 44.232 38.7512 45.144 36.8792 45.144C36.0152 45.144 35.5832 44.616 35.5832 43.56C35.5832 43.32 35.6072 43.152 35.6552 43.056C35.9912 40.32 37.0952 37.44 38.9672 34.416C42.7112 28.368 46.5992 25.344 50.6312 25.344H58.9112C59.1512 25.344 59.2712 25.44 59.2712 25.632C59.2712 26.016 59.0552 26.208 58.6232 26.208C57.9512 26.208 57.1112 27 56.1032 28.584C55.0952 30.12 53.7512 32.52 52.0712 35.784C50.4392 39 49.6232 41.04 49.6232 41.904C49.6232 42.72 49.9592 43.128 50.6312 43.128C51.7352 43.128 53.2712 42.168 55.2392 40.248C56.2952 39.144 57.0872 38.28 57.6152 37.656C58.1432 37.032 58.4792 36.624 58.6232 36.432C58.8152 36.24 59.3912 35.544 60.3512 34.344ZM52.6472 27.648C52.6472 26.736 52.0232 26.28 50.7752 26.28C49.5752 26.28 48.2312 26.976 46.7432 28.368C45.2552 29.76 43.6232 32.016 41.8472 35.136C40.1192 38.208 39.2552 40.44 39.2552 41.832C39.2552 42.408 39.4472 42.696 39.8312 42.696C41.2232 42.696 43.6952 40.584 47.2472 36.36C50.8472 32.088 52.6472 29.184 52.6472 27.648Z" fill="black" fill-opacity="0.7"/>
<path d="M84.8273 0.864014C86.0273 0.864014 86.6273 1.63201 86.6273 3.16801C86.6273 5.71202 84.5393 9.81602 80.3633 15.48C76.8113 20.424 71.8673 25.752 65.5313 31.464C64.2833 33.768 63.3473 36.24 62.7233 38.88C62.5793 39.408 62.5073 39.912 62.5073 40.392C62.5073 42.264 63.3953 43.2 65.1713 43.2C65.4593 43.2 65.7713 43.176 66.1073 43.128C68.1233 42.744 71.3393 39.816 75.7553 34.344C75.8513 34.44 75.8993 34.656 75.8993 34.992C75.8993 35.28 75.2753 36.216 74.0273 37.8C72.7793 39.336 71.8433 40.416 71.2193 41.04C68.4833 43.776 66.0113 45.144 63.8033 45.144C61.3073 45.144 60.0593 43.944 60.0593 41.544C60.0593 39.624 60.8273 36.984 62.3633 33.624L59.3393 36.936C59.0033 37.416 58.8353 37.368 58.8353 36.792C58.8353 36.408 59.0033 36 59.3393 35.568C59.7233 35.088 60.4673 34.2 61.5713 32.904C62.6753 31.608 63.4913 30.648 64.0193 30.024C64.6913 28.776 66.0593 26.064 68.1233 21.888C72.4913 13.056 75.7553 7.20002 77.9153 4.32002C78.4433 4.12802 79.4753 3.50402 81.0113 2.44801C82.5953 1.39201 83.8673 0.864014 84.8273 0.864014ZM79.1393 14.76C82.5473 9.19202 84.2513 5.28002 84.2513 3.02402C84.2513 2.44801 84.0353 2.16001 83.6033 2.16001C82.0193 2.16001 78.8993 6.33601 74.2433 14.688C70.3073 21.792 67.8113 26.424 66.7553 28.584C71.5073 24.648 75.6353 20.04 79.1393 14.76Z" fill="black" fill-opacity="0.7"/>
<path d="M87.7697 31.752C87.5777 31.752 87.5297 31.584 87.6257 31.248C87.7217 30.912 87.7697 30.48 87.7697 29.952C87.7697 29.376 87.6257 28.752 87.3377 28.08C86.8577 26.784 86.0657 26.136 84.9617 26.136C83.9057 26.136 83.0417 26.472 82.3697 27.144C81.7457 27.768 81.4337 28.344 81.4337 28.872C81.4337 29.4 81.4577 29.856 81.5057 30.24C81.6017 30.576 81.8897 31.056 82.3697 31.68C82.8497 32.304 83.4257 32.952 84.0977 33.624C85.9217 35.544 86.8337 37.248 86.8337 38.736C86.8337 40.176 86.4497 41.448 85.6817 42.552C84.0497 44.952 81.7457 46.152 78.7697 46.152C77.2337 46.152 75.7937 45.84 74.4497 45.216C72.7697 44.448 71.9297 43.272 71.9297 41.688C71.9297 41.16 72.0737 40.488 72.3617 39.672C72.6497 38.808 73.0577 38.16 73.5857 37.728C73.8737 37.584 74.0417 37.632 74.0897 37.872C73.7537 38.88 73.5857 39.72 73.5857 40.392C73.5857 41.88 74.6177 43.248 76.6817 44.496C77.2577 44.88 77.8817 45.072 78.5537 45.072C80.9057 45.072 82.4177 44.664 83.0897 43.848C83.8097 42.984 84.1697 41.952 84.1697 40.752C84.1697 39.552 83.4017 38.136 81.8657 36.504C80.0417 34.488 79.1297 32.784 79.1297 31.392C78.5537 32.208 77.3537 33.744 75.5297 36C75.1457 36.528 74.9297 36.576 74.8817 36.144C74.8337 35.712 75.0257 35.232 75.4577 34.704C76.2737 33.84 78.1457 31.224 81.0737 26.856C82.3217 25.464 83.8097 24.768 85.5377 24.768C88.2257 24.768 89.5937 25.704 89.6417 27.576C89.6417 28.536 89.3057 29.688 88.6337 31.032C88.3937 31.512 88.1057 31.752 87.7697 31.752Z" fill="black" fill-opacity="0.7"/>
<path d="M125.456 5.40002C125.456 5.59202 125.336 5.68802 125.096 5.68802C124.904 5.68802 124.808 5.64002 124.808 5.54401C124.808 4.24801 123.848 3.60001 121.928 3.60001C120.008 3.60001 118.208 3.96001 116.528 4.68002C114.896 5.35202 113.384 6.36002 111.992 7.70402C110.648 9.04802 109.424 10.44 108.32 11.88C107.264 13.32 106.208 15.096 105.152 17.208C104.096 19.272 103.232 21.048 102.56 22.536C101.888 24.024 101.096 25.848 100.184 28.008C99.3201 30.12 98.6721 31.656 98.2401 32.616C98.1921 32.808 98.2161 32.904 98.3121 32.904C103.304 27.912 106.976 25.416 109.328 25.416C110.144 25.416 110.552 25.992 110.552 27.144V27.792C109.976 31.776 108.032 35.76 104.72 39.744C101.456 43.68 97.9281 45.648 94.1361 45.648C91.7841 45.648 90.6081 45 90.6081 43.704C90.6081 42.792 91.8801 39.432 94.4241 33.624C93.9921 34.104 93.4161 34.728 92.6961 35.496C92.0241 36.264 91.5681 36.816 91.3281 37.152C91.1361 37.44 91.0161 37.368 90.9681 36.936C90.9201 36.456 91.0881 36 91.4721 35.568C91.8561 35.088 92.6001 34.2 93.7041 32.904C94.8081 31.608 95.6241 30.648 96.1521 30.024C100.856 20.136 105.92 12.528 111.344 7.20001C115.616 3.02401 119.336 0.936013 122.504 0.936013C123.272 0.936013 123.944 1.15201 124.52 1.58401C125.096 1.96801 125.408 2.54401 125.456 3.31201V5.40002ZM107.024 28.8C107.024 28.176 106.808 27.864 106.376 27.864C105.656 27.864 104.48 28.632 102.848 30.168C101.216 31.704 99.8961 33.072 98.8881 34.272C95.4321 38.208 93.7041 41.112 93.7041 42.984C93.7041 43.944 94.3041 44.424 95.5041 44.424C96.7041 44.424 98.1441 43.584 99.8241 41.904C101.072 40.752 102.584 38.64 104.36 35.568C106.136 32.496 107.024 30.24 107.024 28.8Z" fill="black" fill-opacity="0.7"/>
<path d="M114.048 36.432C113.328 38.304 112.968 40.056 112.968 41.688C112.968 43.272 113.952 44.064 115.92 44.064C116.64 44.064 117.576 43.848 118.728 43.416C120.6 42.792 122.544 41.592 124.56 39.816C126.576 38.04 128.232 36.312 129.528 34.632C129.672 34.776 129.744 34.968 129.744 35.208C129.744 35.448 129.576 35.808 129.24 36.288C127.464 38.736 125.256 40.896 122.616 42.768C119.976 44.64 117.288 45.576 114.552 45.576C111 45.576 109.224 44.28 109.224 41.688C109.224 39.624 110.328 36.768 112.536 33.12C113.784 31.152 115.56 29.328 117.864 27.648C120.168 25.92 122.376 25.056 124.488 25.056C126.6 25.056 127.656 26.064 127.656 28.08C127.656 30.192 126.816 31.8 125.136 32.904C123.504 33.96 121.632 34.824 119.52 35.496C117.456 36.12 115.632 36.432 114.048 36.432ZM114.624 34.992C114.912 34.992 115.44 34.992 116.208 34.992C117.024 34.992 117.984 34.824 119.088 34.488C121.824 33.672 123.6 32.136 124.416 29.88C124.656 29.208 124.776 28.584 124.776 28.008C124.776 27.384 124.584 26.952 124.2 26.712C123.816 26.424 123.48 26.28 123.192 26.28C120.072 26.328 117.216 29.232 114.624 34.992Z" fill="black" fill-opacity="0.7"/>
<path d="M147.098 30.744C147.098 28.536 146.402 27.432 145.01 27.432C143.666 27.432 141.722 28.896 139.178 31.824C136.682 34.704 134.786 37.8 133.49 41.112L131.978 45.144C131.69 45.144 131.114 45.288 130.25 45.576C129.386 45.864 128.93 46.008 128.882 46.008C128.642 46.008 128.618 45.792 128.81 45.36C129.05 44.928 129.458 43.992 130.034 42.552C130.658 41.112 131.402 39.288 132.266 37.08C133.946 32.856 135.074 30.072 135.65 28.728C133.106 31.464 130.802 34.2 128.738 36.936C128.402 37.416 128.234 37.368 128.234 36.792C128.234 36.408 128.354 36.072 128.594 35.784C132.002 31.56 134.618 28.128 136.442 25.488C138.842 25.152 140.234 24.816 140.618 24.48C141.002 24.144 141.242 23.976 141.338 23.976C141.434 23.976 141.482 24.072 141.482 24.264C141.53 24.456 141.41 24.72 141.122 25.056C140.834 25.392 139.226 28.248 136.298 33.624C137.594 31.656 139.226 29.712 141.194 27.792C143.21 25.872 144.914 24.912 146.306 24.912C147.746 24.912 148.682 25.512 149.114 26.712C149.306 26.952 149.402 27.216 149.402 27.504C149.402 27.792 149.354 28.176 149.258 28.656C149.162 29.088 149.066 29.448 148.97 29.736C148.442 30.936 148.058 31.656 147.818 31.896C147.674 32.136 147.434 32.28 147.098 32.328C147.05 32.28 147.002 32.232 146.954 32.184C147.05 31.656 147.098 31.176 147.098 30.744Z" fill="black" fill-opacity="0.7"/>
<path d="M126.323 58.896L126.179 60.696C126.179 62.856 126.875 64.512 128.267 65.664C129.611 66.864 131.267 67.464 133.235 67.464C135.155 67.464 136.907 67.128 138.491 66.456C140.027 65.832 141.395 65.136 142.595 64.368C143.795 63.6 144.947 62.616 146.051 61.416C147.155 60.216 148.115 59.16 148.931 58.248C149.747 57.384 150.635 56.088 151.595 54.36C152.603 52.632 153.347 51.36 153.827 50.544C154.355 49.728 155.075 48.264 155.987 46.152C156.899 44.04 157.475 42.696 157.715 42.12C158.003 41.496 158.603 40.032 159.515 37.728C160.427 35.424 160.931 34.128 161.027 33.84C159.443 36.432 157.187 38.976 154.259 41.472C151.379 43.92 149.027 45.144 147.203 45.144C146.339 45.144 145.907 44.616 145.907 43.56V43.056C146.243 40.368 147.371 37.464 149.291 34.344C153.035 28.344 156.923 25.344 160.955 25.344H169.235C169.475 25.344 169.595 25.44 169.595 25.632C169.595 26.016 169.379 26.208 168.947 26.208C167.891 26.208 167.027 26.832 166.355 28.08C165.059 30.144 162.779 34.968 159.515 42.552C156.299 50.088 154.043 54.984 152.747 57.24C151.451 59.544 149.723 61.824 147.563 64.08C143.723 68.16 139.571 70.2 135.107 70.2C133.187 70.2 131.387 69.768 129.707 68.904C126.731 67.32 125.243 64.704 125.243 61.056V59.832C125.243 59.112 125.555 58.752 126.179 58.752C126.275 58.752 126.323 58.8 126.323 58.896ZM162.899 27.648C162.899 26.736 162.299 26.28 161.099 26.28C159.899 26.28 158.555 26.976 157.067 28.368C155.579 29.76 153.947 32.016 152.171 35.136C150.395 38.208 149.507 40.44 149.507 41.832C149.507 42.408 149.723 42.696 150.155 42.696C151.547 42.696 154.019 40.584 157.571 36.36C161.123 32.088 162.899 29.184 162.899 27.648Z" fill="black" fill-opacity="0.7"/>
</svg>
