<svg width="205" height="27" viewBox="0 0 205 27" fill="none" xmlns="http://www.w3.org/2000/svg">
<path d="M22.1884 0.728042V26H16.0324V15.596H6.45635V26H0.300354V0.728042H6.45635V10.628H16.0324V0.728042H22.1884Z" fill="black" fill-opacity="0.25"/>
<path d="M32.6804 0.728042V15.848C32.6804 17.36 33.0524 18.524 33.7964 19.34C34.5404 20.156 35.6324 20.564 37.0724 20.564C38.5124 20.564 39.6164 20.156 40.3844 19.34C41.1524 18.524 41.5364 17.36 41.5364 15.848V0.728042H47.6924V15.812C47.6924 18.068 47.2124 19.976 46.2524 21.536C45.2924 23.096 43.9964 24.272 42.3644 25.064C40.7564 25.856 38.9564 26.252 36.9644 26.252C34.9724 26.252 33.1844 25.868 31.6004 25.1C30.0404 24.308 28.8044 23.132 27.8924 21.572C26.9804 19.988 26.5244 18.068 26.5244 15.812V0.728042H32.6804Z" fill="black" fill-opacity="0.25"/>
<path d="M74.6232 26H68.4672L58.1712 10.412V26H52.0152V0.728042H58.1712L68.4672 16.388V0.728042H74.6232V26Z" fill="black" fill-opacity="0.25"/>
<path d="M97.2655 0.728042V5.66004H90.5695V26H84.4135V5.66004H77.7175V0.728042H97.2655Z" fill="black" fill-opacity="0.25"/>
<path d="M109.499 26.252C107.651 26.252 105.995 25.952 104.531 25.352C103.067 24.752 101.891 23.864 101.003 22.688C100.139 21.512 99.683 20.096 99.635 18.44H106.187C106.283 19.376 106.607 20.096 107.159 20.6C107.711 21.08 108.431 21.32 109.319 21.32C110.231 21.32 110.951 21.116 111.479 20.708C112.007 20.276 112.271 19.688 112.271 18.944C112.271 18.32 112.055 17.804 111.623 17.396C111.215 16.988 110.699 16.652 110.075 16.388C109.475 16.124 108.611 15.824 107.483 15.488C105.851 14.984 104.519 14.48 103.487 13.976C102.455 13.472 101.567 12.728 100.823 11.744C100.079 10.76 99.707 9.47604 99.707 7.89204C99.707 5.54004 100.559 3.70404 102.263 2.38404C103.967 1.04004 106.187 0.368042 108.923 0.368042C111.707 0.368042 113.951 1.04004 115.655 2.38404C117.359 3.70404 118.271 5.55204 118.391 7.92804H111.731C111.683 7.11204 111.383 6.47604 110.831 6.02004C110.279 5.54004 109.571 5.30004 108.707 5.30004C107.963 5.30004 107.363 5.50404 106.907 5.91204C106.451 6.29604 106.223 6.86004 106.223 7.60404C106.223 8.42004 106.607 9.05604 107.375 9.51204C108.143 9.96804 109.343 10.46 110.975 10.988C112.607 11.54 113.927 12.068 114.935 12.572C115.967 13.076 116.855 13.808 117.599 14.768C118.343 15.728 118.715 16.964 118.715 18.476C118.715 19.916 118.343 21.224 117.599 22.4C116.879 23.576 115.823 24.512 114.431 25.208C113.039 25.904 111.395 26.252 109.499 26.252Z" fill="black" fill-opacity="0.25"/>
<path d="M151.123 0.728042V26H144.967V10.844L139.315 26H134.347L128.659 10.808V26H122.503V0.728042H129.775L136.867 18.224L143.887 0.728042H151.123Z" fill="black" fill-opacity="0.25"/>
<path d="M171.282 21.536H161.85L160.338 26H153.894L163.038 0.728042H170.166L179.31 26H172.794L171.282 21.536ZM169.698 16.784L166.566 7.53204L163.47 16.784H169.698Z" fill="black" fill-opacity="0.25"/>
<path d="M204.701 26H198.545L188.249 10.412V26H182.093V0.728042H188.249L198.545 16.388V0.728042H204.701V26Z" fill="black" fill-opacity="0.25"/>
</svg>
