<svg width="150" height="28" viewBox="0 0 150 28" fill="none" xmlns="http://www.w3.org/2000/svg">
<path d="M3.45044 7.15234C2.51294 7.15234 1.74536 6.87695 1.14771 6.32617C0.550049 5.76367 0.251221 5.07812 0.251221 4.26953C0.251221 3.4375 0.550049 2.75781 1.14771 2.23047C1.74536 1.70312 2.51294 1.43945 3.45044 1.43945C4.39966 1.43945 5.16724 1.70312 5.75317 2.23047C6.35083 2.75781 6.64966 3.4375 6.64966 4.26953C6.64966 5.11328 6.35083 5.80469 5.75317 6.34375C5.16724 6.88281 4.39966 7.15234 3.45044 7.15234ZM6.19263 28H0.637939V10H6.19263V28Z" fill="black" fill-opacity="0.25"/>
<path d="M35.4532 28H29.9161V17.998C29.9161 15.209 28.92 13.8145 26.9278 13.8145C25.9668 13.8145 25.1758 14.1836 24.5547 14.9219C23.9336 15.6602 23.6231 16.5977 23.6231 17.7344V28H18.0684V10H23.6231V12.8477H23.6934C25.0176 10.6562 26.9454 9.56055 29.4766 9.56055C33.461 9.56055 35.4532 12.0332 35.4532 16.9785V28Z" fill="black" fill-opacity="0.25"/>
<path d="M58.8075 5.60547C58.0926 5.32422 57.4071 5.18359 56.7508 5.18359C54.9696 5.18359 54.079 6.15039 54.079 8.08398V10H58.1922V14.0957H54.079V28H48.5418V14.0957H45.5184V10H48.5418V7.76758C48.5418 5.7168 49.2098 4.06445 50.5458 2.81055C51.8817 1.55664 53.6981 0.929688 55.995 0.929688C57.12 0.929688 58.0575 1.04688 58.8075 1.28125V5.60547Z" fill="black" fill-opacity="0.25"/>
<path d="M70.8942 7.15234C69.9567 7.15234 69.1891 6.87695 68.5915 6.32617C67.9938 5.76367 67.695 5.07812 67.695 4.26953C67.695 3.4375 67.9938 2.75781 68.5915 2.23047C69.1891 1.70312 69.9567 1.43945 70.8942 1.43945C71.8434 1.43945 72.611 1.70312 73.1969 2.23047C73.7946 2.75781 74.0934 3.4375 74.0934 4.26953C74.0934 5.11328 73.7946 5.80469 73.1969 6.34375C72.611 6.88281 71.8434 7.15234 70.8942 7.15234ZM73.6364 28H68.0817V10H73.6364V28Z" fill="black" fill-opacity="0.25"/>
<path d="M102.897 28H97.3598V17.998C97.3598 15.209 96.3637 13.8145 94.3715 13.8145C93.4106 13.8145 92.6196 14.1836 91.9985 14.9219C91.3774 15.6602 91.0668 16.5977 91.0668 17.7344V28H85.5122V10H91.0668V12.8477H91.1372C92.4614 10.6562 94.3891 9.56055 96.9204 9.56055C100.905 9.56055 102.897 12.0332 102.897 16.9785V28Z" fill="black" fill-opacity="0.25"/>
<path d="M117.322 7.15234C116.384 7.15234 115.616 6.87695 115.019 6.32617C114.421 5.76367 114.122 5.07812 114.122 4.26953C114.122 3.4375 114.421 2.75781 115.019 2.23047C115.616 1.70312 116.384 1.43945 117.322 1.43945C118.271 1.43945 119.038 1.70312 119.624 2.23047C120.222 2.75781 120.521 3.4375 120.521 4.26953C120.521 5.11328 120.222 5.80469 119.624 6.34375C119.038 6.88281 118.271 7.15234 117.322 7.15234ZM120.064 28H114.509V10H120.064V28Z" fill="black" fill-opacity="0.25"/>
<path d="M149.324 10L143.383 18.7188L149.289 28H142.891L140.289 23.1484C140.078 22.7617 139.826 22.2168 139.533 21.5137H139.463C139.287 22.0059 139.047 22.5332 138.742 23.0957L136.123 28H129.742L135.824 19.0352L130.111 10H136.545L139.111 15.0449C139.451 15.7129 139.691 16.2754 139.832 16.7324H139.902C140.09 16.1816 140.342 15.6074 140.658 15.0098L143.277 10H149.324Z" fill="black" fill-opacity="0.25"/>
</svg>
