<svg width="154" height="81" viewBox="0 0 154 81" fill="none" xmlns="http://www.w3.org/2000/svg">
<path d="M55.7582 0.728003V26H49.6022V10.844L43.9502 26H38.9822L33.2942 10.808V26H27.1382V0.728003H34.4102L41.5022 18.224L48.5222 0.728003H55.7582Z" fill="black" fill-opacity="0.25"/>
<path d="M66.3411 0.728003V26H60.1851V0.728003H66.3411Z" fill="black" fill-opacity="0.25"/>
<path d="M69.7582 13.328C69.7582 10.832 70.2982 8.612 71.3782 6.668C72.4582 4.7 73.9583 3.176 75.8783 2.096C77.8223 0.992002 80.0182 0.440002 82.4662 0.440002C85.4662 0.440002 88.0343 1.232 90.1702 2.816C92.3062 4.4 93.7342 6.56 94.4542 9.296H87.6862C87.1822 8.24 86.4622 7.436 85.5262 6.884C84.6142 6.332 83.5702 6.056 82.3942 6.056C80.4982 6.056 78.9622 6.716 77.7862 8.036C76.6102 9.356 76.0222 11.12 76.0222 13.328C76.0222 15.536 76.6102 17.3 77.7862 18.62C78.9622 19.94 80.4982 20.6 82.3942 20.6C83.5702 20.6 84.6142 20.324 85.5262 19.772C86.4622 19.22 87.1822 18.416 87.6862 17.36H94.4542C93.7342 20.096 92.3062 22.256 90.1702 23.84C88.0343 25.4 85.4662 26.18 82.4662 26.18C80.0182 26.18 77.8223 25.64 75.8783 24.56C73.9583 23.456 72.4582 21.932 71.3782 19.988C70.2982 18.044 69.7582 15.824 69.7582 13.328Z" fill="black" fill-opacity="0.25"/>
<path d="M112.876 26L104.38 14.84V26H98.2241V0.728003H104.38V11.816L112.804 0.728003H120.04L110.248 13.112L120.4 26H112.876Z" fill="black" fill-opacity="0.25"/>
<path d="M16.555 54.728V59.66H6.25903V64.988H13.963V69.776H6.25903V80H0.103027V54.728H16.555Z" fill="black" fill-opacity="0.25"/>
<path d="M25.9465 54.728V80H19.7905V54.728H25.9465Z" fill="black" fill-opacity="0.25"/>
<path d="M53.0157 80H46.8597L36.5637 64.412V80H30.4077V54.728H36.5637L46.8597 70.388V54.728H53.0157V80Z" fill="black" fill-opacity="0.25"/>
<path d="M73.21 75.536H63.778L62.266 80H55.822L64.966 54.728H72.094L81.238 80H74.722L73.21 75.536ZM71.626 70.784L68.494 61.532L65.398 70.784H71.626Z" fill="black" fill-opacity="0.25"/>
<path d="M106.629 80H100.473L90.177 64.412V80H84.021V54.728H90.177L100.473 70.388V54.728H106.629V80Z" fill="black" fill-opacity="0.25"/>
<path d="M110.047 67.328C110.047 64.832 110.587 62.612 111.667 60.668C112.747 58.7 114.247 57.176 116.167 56.096C118.111 54.992 120.307 54.44 122.755 54.44C125.755 54.44 128.323 55.232 130.459 56.816C132.595 58.4 134.023 60.56 134.743 63.296H127.975C127.471 62.24 126.751 61.436 125.815 60.884C124.903 60.332 123.859 60.056 122.683 60.056C120.787 60.056 119.251 60.716 118.075 62.036C116.899 63.356 116.311 65.12 116.311 67.328C116.311 69.536 116.899 71.3 118.075 72.62C119.251 73.94 120.787 74.6 122.683 74.6C123.859 74.6 124.903 74.324 125.815 73.772C126.751 73.22 127.471 72.416 127.975 71.36H134.743C134.023 74.096 132.595 76.256 130.459 77.84C128.323 79.4 125.755 80.18 122.755 80.18C120.307 80.18 118.111 79.64 116.167 78.56C114.247 77.456 112.747 75.932 111.667 73.988C110.587 72.044 110.047 69.824 110.047 67.328Z" fill="black" fill-opacity="0.25"/>
<path d="M144.669 59.66V64.772H152.913V69.524H144.669V75.068H153.993V80H138.513V54.728H153.993V59.66H144.669Z" fill="black" fill-opacity="0.25"/>
</svg>
