<svg width="148" height="27" viewBox="0 0 148 27" fill="none" xmlns="http://www.w3.org/2000/svg">
<path d="M19.6345 8.86398C19.6345 10.328 19.2985 11.672 18.6265 12.896C17.9545 14.096 16.9225 15.068 15.5305 15.812C14.1385 16.556 12.4105 16.928 10.3465 16.928H6.53051V26H0.374512V0.727981H10.3465C12.3625 0.727981 14.0665 1.07598 15.4585 1.77198C16.8505 2.46798 17.8945 3.42798 18.5905 4.65198C19.2865 5.87598 19.6345 7.27998 19.6345 8.86398ZM9.87851 12.032C11.0545 12.032 11.9305 11.756 12.5065 11.204C13.0825 10.652 13.3705 9.87198 13.3705 8.86398C13.3705 7.85598 13.0825 7.07598 12.5065 6.52398C11.9305 5.97198 11.0545 5.69598 9.87851 5.69598H6.53051V12.032H9.87851Z" fill="black" fill-opacity="0.25"/>
<path d="M34.7914 26.252C32.4154 26.252 30.2314 25.7 28.2394 24.596C26.2714 23.492 24.6994 21.956 23.5234 19.988C22.3714 17.996 21.7954 15.764 21.7954 13.292C21.7954 10.82 22.3714 8.59998 23.5234 6.63198C24.6994 4.66398 26.2714 3.12798 28.2394 2.02398C30.2314 0.919981 32.4154 0.367981 34.7914 0.367981C37.1674 0.367981 39.3394 0.919981 41.3074 2.02398C43.2994 3.12798 44.8594 4.66398 45.9874 6.63198C47.1394 8.59998 47.7154 10.82 47.7154 13.292C47.7154 15.764 47.1394 17.996 45.9874 19.988C44.8354 21.956 43.2754 23.492 41.3074 24.596C39.3394 25.7 37.1674 26.252 34.7914 26.252ZM34.7914 20.636C36.8074 20.636 38.4154 19.964 39.6154 18.62C40.8394 17.276 41.4514 15.5 41.4514 13.292C41.4514 11.06 40.8394 9.28398 39.6154 7.96398C38.4154 6.61998 36.8074 5.94798 34.7914 5.94798C32.7514 5.94798 31.1194 6.60798 29.8954 7.92798C28.6954 9.24798 28.0954 11.036 28.0954 13.292C28.0954 15.524 28.6954 17.312 29.8954 18.656C31.1194 19.976 32.7514 20.636 34.7914 20.636Z" fill="black" fill-opacity="0.25"/>
<path d="M57.2961 21.248H65.3601V26H51.1401V0.727981H57.2961V21.248Z" fill="black" fill-opacity="0.25"/>
<path d="M84.0284 21.536H74.5964L73.0844 26H66.6404L75.7844 0.727981H82.9124L92.0564 26H85.5404L84.0284 21.536ZM82.4444 16.784L79.3124 7.53198L76.2164 16.784H82.4444Z" fill="black" fill-opacity="0.25"/>
<path d="M107.727 26L102.471 16.46H100.995V26H94.8394V0.727981H105.171C107.163 0.727981 108.855 1.07598 110.247 1.77198C111.663 2.46798 112.719 3.42798 113.415 4.65198C114.111 5.85198 114.459 7.19598 114.459 8.68398C114.459 10.364 113.979 11.864 113.019 13.184C112.083 14.504 110.691 15.44 108.843 15.992L114.675 26H107.727ZM100.995 12.104H104.811C105.939 12.104 106.779 11.828 107.331 11.276C107.907 10.724 108.195 9.94398 108.195 8.93598C108.195 7.97598 107.907 7.21998 107.331 6.66798C106.779 6.11598 105.939 5.83998 104.811 5.83998H100.995V12.104Z" fill="black" fill-opacity="0.25"/>
<path d="M124.48 0.727981V26H118.324V0.727981H124.48Z" fill="black" fill-opacity="0.25"/>
<path d="M138.085 26.252C136.237 26.252 134.581 25.952 133.117 25.352C131.653 24.752 130.477 23.864 129.589 22.688C128.725 21.512 128.269 20.096 128.221 18.44H134.773C134.869 19.376 135.193 20.096 135.745 20.6C136.297 21.08 137.017 21.32 137.905 21.32C138.817 21.32 139.537 21.116 140.065 20.708C140.593 20.276 140.857 19.688 140.857 18.944C140.857 18.32 140.641 17.804 140.209 17.396C139.801 16.988 139.285 16.652 138.661 16.388C138.061 16.124 137.197 15.824 136.069 15.488C134.437 14.984 133.105 14.48 132.073 13.976C131.041 13.472 130.153 12.728 129.409 11.744C128.665 10.76 128.293 9.47598 128.293 7.89198C128.293 5.53998 129.145 3.70398 130.849 2.38398C132.553 1.03998 134.773 0.367981 137.509 0.367981C140.293 0.367981 142.537 1.03998 144.241 2.38398C145.945 3.70398 146.857 5.55198 146.977 7.92798H140.317C140.269 7.11198 139.969 6.47598 139.417 6.01998C138.865 5.53998 138.157 5.29998 137.293 5.29998C136.549 5.29998 135.949 5.50398 135.493 5.91198C135.037 6.29598 134.809 6.85998 134.809 7.60398C134.809 8.41998 135.193 9.05598 135.961 9.51198C136.729 9.96798 137.929 10.46 139.561 10.988C141.193 11.54 142.513 12.068 143.521 12.572C144.553 13.076 145.441 13.808 146.185 14.768C146.929 15.728 147.301 16.964 147.301 18.476C147.301 19.916 146.929 21.224 146.185 22.4C145.465 23.576 144.409 24.512 143.017 25.208C141.625 25.904 139.981 26.252 138.085 26.252Z" fill="black" fill-opacity="0.25"/>
</svg>
