<svg width="123" height="27" viewBox="0 0 123 27" fill="none" xmlns="http://www.w3.org/2000/svg">
<path d="M10.6401 26.252C8.79206 26.252 7.13606 25.952 5.67206 25.352C4.20806 24.752 3.03206 23.864 2.14406 22.688C1.28006 21.512 0.824062 20.096 0.776062 18.44H7.32806C7.42406 19.376 7.74806 20.096 8.30006 20.6C8.85206 21.08 9.57206 21.32 10.4601 21.32C11.3721 21.32 12.0921 21.116 12.6201 20.708C13.1481 20.276 13.4121 19.688 13.4121 18.944C13.4121 18.32 13.1961 17.804 12.7641 17.396C12.3561 16.988 11.8401 16.652 11.2161 16.388C10.6161 16.124 9.75206 15.824 8.62406 15.488C6.99206 14.984 5.66006 14.48 4.62806 13.976C3.59606 13.472 2.70806 12.728 1.96406 11.744C1.22006 10.76 0.848062 9.47604 0.848062 7.89204C0.848062 5.54004 1.70006 3.70404 3.40406 2.38404C5.10806 1.04004 7.32806 0.368042 10.0641 0.368042C12.8481 0.368042 15.0921 1.04004 16.7961 2.38404C18.5001 3.70404 19.4121 5.55204 19.5321 7.92804H12.8721C12.8241 7.11204 12.5241 6.47604 11.9721 6.02004C11.4201 5.54004 10.7121 5.30004 9.84806 5.30004C9.10406 5.30004 8.50406 5.50404 8.04806 5.91204C7.59206 6.29604 7.36406 6.86004 7.36406 7.60404C7.36406 8.42004 7.74806 9.05604 8.51606 9.51204C9.28406 9.96804 10.4841 10.46 12.1161 10.988C13.7481 11.54 15.0681 12.068 16.0761 12.572C17.1081 13.076 17.9961 13.808 18.7401 14.768C19.4841 15.728 19.8561 16.964 19.8561 18.476C19.8561 19.916 19.4841 21.224 18.7401 22.4C18.0201 23.576 16.9641 24.512 15.5721 25.208C14.1801 25.904 12.5361 26.252 10.6401 26.252Z" fill="black" fill-opacity="0.25"/>
<path d="M42.7965 26.252C40.4205 26.252 38.2365 25.7 36.2445 24.596C34.2765 23.492 32.7045 21.956 31.5285 19.988C30.3765 17.996 29.8005 15.764 29.8005 13.292C29.8005 10.82 30.3765 8.60004 31.5285 6.63204C32.7045 4.66404 34.2765 3.12804 36.2445 2.02404C38.2365 0.920042 40.4205 0.368042 42.7965 0.368042C45.1725 0.368042 47.3445 0.920042 49.3125 2.02404C51.3045 3.12804 52.8645 4.66404 53.9925 6.63204C55.1445 8.60004 55.7205 10.82 55.7205 13.292C55.7205 15.764 55.1445 17.996 53.9925 19.988C52.8405 21.956 51.2805 23.492 49.3125 24.596C47.3445 25.7 45.1725 26.252 42.7965 26.252ZM42.7965 20.636C44.8125 20.636 46.4205 19.964 47.6205 18.62C48.8445 17.276 49.4565 15.5 49.4565 13.292C49.4565 11.06 48.8445 9.28404 47.6205 7.96404C46.4205 6.62004 44.8125 5.94804 42.7965 5.94804C40.7565 5.94804 39.1245 6.60804 37.9005 7.92804C36.7005 9.24804 36.1005 11.036 36.1005 13.292C36.1005 15.524 36.7005 17.312 37.9005 18.656C39.1245 19.976 40.7565 20.636 42.7965 20.636Z" fill="black" fill-opacity="0.25"/>
<path d="M88.9533 26H82.7973L72.5013 10.412V26H66.3453V0.728042H72.5013L82.7973 16.388V0.728042H88.9533V26Z" fill="black" fill-opacity="0.25"/>
<path d="M122.288 0.728042L113.54 17.648V26H107.384V17.648L98.6356 0.728042H105.62L110.516 11.312L115.376 0.728042H122.288Z" fill="black" fill-opacity="0.25"/>
</svg>
