<svg width="144" height="81" viewBox="0 0 144 81" fill="none" xmlns="http://www.w3.org/2000/svg">
<path d="M11.665 26.252C9.81705 26.252 8.16105 25.952 6.69705 25.352C5.23305 24.752 4.05705 23.864 3.16905 22.688C2.30505 21.512 1.84905 20.096 1.80105 18.44H8.35305C8.44905 19.376 8.77305 20.096 9.32505 20.6C9.87705 21.08 10.597 21.32 11.485 21.32C12.397 21.32 13.117 21.116 13.645 20.708C14.173 20.276 14.437 19.688 14.437 18.944C14.437 18.32 14.221 17.804 13.789 17.396C13.381 16.988 12.865 16.652 12.241 16.388C11.641 16.124 10.777 15.824 9.64905 15.488C8.01705 14.984 6.68505 14.48 5.65305 13.976C4.62105 13.472 3.73305 12.728 2.98905 11.744C2.24505 10.76 1.87305 9.47598 1.87305 7.89198C1.87305 5.53998 2.72505 3.70398 4.42905 2.38398C6.13305 1.03998 8.35305 0.367981 11.089 0.367981C13.873 0.367981 16.117 1.03998 17.821 2.38398C19.525 3.70398 20.437 5.55198 20.557 7.92798H13.897C13.849 7.11198 13.549 6.47598 12.997 6.01998C12.445 5.53998 11.737 5.29998 10.873 5.29998C10.129 5.29998 9.52905 5.50398 9.07305 5.91198C8.61705 6.29598 8.38905 6.85998 8.38905 7.60398C8.38905 8.41998 8.77305 9.05598 9.54105 9.51198C10.309 9.96798 11.509 10.46 13.141 10.988C14.773 11.54 16.093 12.068 17.101 12.572C18.133 13.076 19.021 13.808 19.765 14.768C20.509 15.728 20.881 16.964 20.881 18.476C20.881 19.916 20.509 21.224 19.765 22.4C19.045 23.576 17.989 24.512 16.597 25.208C15.205 25.904 13.561 26.252 11.665 26.252Z" fill="black" fill-opacity="0.25"/>
<path d="M43.9295 8.86398C43.9295 10.328 43.5935 11.672 42.9215 12.896C42.2495 14.096 41.2175 15.068 39.8255 15.812C38.4335 16.556 36.7055 16.928 34.6415 16.928H30.8255V26H24.6695V0.727981H34.6415C36.6575 0.727981 38.3615 1.07598 39.7535 1.77198C41.1455 2.46798 42.1895 3.42798 42.8855 4.65198C43.5815 5.87598 43.9295 7.27998 43.9295 8.86398ZM34.1735 12.032C35.3495 12.032 36.2255 11.756 36.8015 11.204C37.3775 10.652 37.6655 9.87198 37.6655 8.86398C37.6655 7.85598 37.3775 7.07598 36.8015 6.52398C36.2255 5.97198 35.3495 5.69598 34.1735 5.69598H30.8255V12.032H34.1735Z" fill="black" fill-opacity="0.25"/>
<path d="M53.2903 21.248H61.3543V26H47.1343V0.727981H53.2903V21.248Z" fill="black" fill-opacity="0.25"/>
<path d="M80.0226 21.536H70.5906L69.0786 26H62.6346L71.7786 0.727981H78.9066L88.0506 26H81.5346L80.0226 21.536ZM78.4386 16.784L75.3066 7.53198L72.2106 16.784H78.4386Z" fill="black" fill-opacity="0.25"/>
<path d="M99.9775 26.252C98.1295 26.252 96.4735 25.952 95.0095 25.352C93.5455 24.752 92.3695 23.864 91.4815 22.688C90.6175 21.512 90.1615 20.096 90.1135 18.44H96.6656C96.7616 19.376 97.0856 20.096 97.6376 20.6C98.1896 21.08 98.9095 21.32 99.7975 21.32C100.71 21.32 101.43 21.116 101.958 20.708C102.486 20.276 102.75 19.688 102.75 18.944C102.75 18.32 102.534 17.804 102.102 17.396C101.694 16.988 101.178 16.652 100.554 16.388C99.9536 16.124 99.0895 15.824 97.9615 15.488C96.3295 14.984 94.9975 14.48 93.9655 13.976C92.9335 13.472 92.0455 12.728 91.3015 11.744C90.5575 10.76 90.1855 9.47598 90.1855 7.89198C90.1855 5.53998 91.0375 3.70398 92.7415 2.38398C94.4455 1.03998 96.6656 0.367981 99.4016 0.367981C102.186 0.367981 104.43 1.03998 106.134 2.38398C107.838 3.70398 108.75 5.55198 108.87 7.92798H102.21C102.162 7.11198 101.862 6.47598 101.31 6.01998C100.758 5.53998 100.05 5.29998 99.1855 5.29998C98.4415 5.29998 97.8416 5.50398 97.3856 5.91198C96.9296 6.29598 96.7015 6.85998 96.7015 7.60398C96.7015 8.41998 97.0855 9.05598 97.8535 9.51198C98.6215 9.96798 99.8215 10.46 101.454 10.988C103.086 11.54 104.406 12.068 105.414 12.572C106.446 13.076 107.334 13.808 108.078 14.768C108.822 15.728 109.194 16.964 109.194 18.476C109.194 19.916 108.822 21.224 108.078 22.4C107.358 23.576 106.302 24.512 104.91 25.208C103.518 25.904 101.874 26.252 99.9775 26.252Z" fill="black" fill-opacity="0.25"/>
<path d="M134.87 0.727981V26H128.714V15.596H119.138V26H112.982V0.727981H119.138V10.628H128.714V0.727981H134.87Z" fill="black" fill-opacity="0.25"/>
<path d="M0.100891 59.444V53.72H10.0729V80H3.66489V59.444H0.100891Z" fill="black" fill-opacity="0.25"/>
<path d="M14.284 66.5C14.284 62.372 15.076 59.12 16.66 56.744C18.268 54.368 20.848 53.18 24.4 53.18C27.952 53.18 30.5201 54.368 32.104 56.744C33.7121 59.12 34.516 62.372 34.516 66.5C34.516 70.676 33.7121 73.952 32.104 76.328C30.5201 78.704 27.952 79.892 24.4 79.892C20.848 79.892 18.268 78.704 16.66 76.328C15.076 73.952 14.284 70.676 14.284 66.5ZM28.468 66.5C28.468 64.076 28.204 62.216 27.676 60.92C27.148 59.6 26.056 58.94 24.4 58.94C22.744 58.94 21.652 59.6 21.124 60.92C20.596 62.216 20.332 64.076 20.332 66.5C20.332 68.132 20.428 69.488 20.62 70.568C20.812 71.624 21.196 72.488 21.772 73.16C22.372 73.808 23.248 74.132 24.4 74.132C25.552 74.132 26.416 73.808 26.992 73.16C27.592 72.488 27.988 71.624 28.18 70.568C28.372 69.488 28.468 68.132 28.468 66.5Z" fill="black" fill-opacity="0.25"/>
<path d="M56.2724 59.084H45.0404V64.052C45.5204 63.524 46.1924 63.092 47.0564 62.756C47.9204 62.42 48.8564 62.252 49.8644 62.252C51.6644 62.252 53.1524 62.66 54.3284 63.476C55.5284 64.292 56.4044 65.348 56.9564 66.644C57.5084 67.94 57.7844 69.344 57.7844 70.856C57.7844 73.664 56.9924 75.896 55.4084 77.552C53.8244 79.184 51.5924 80 48.7124 80C46.7924 80 45.1244 79.676 43.7084 79.028C42.2924 78.356 41.2004 77.432 40.4324 76.256C39.6644 75.08 39.2444 73.724 39.1724 72.188H45.1844C45.3284 72.932 45.6764 73.556 46.2284 74.06C46.7804 74.54 47.5364 74.78 48.4964 74.78C49.6244 74.78 50.4644 74.42 51.0164 73.7C51.5684 72.98 51.8444 72.02 51.8444 70.82C51.8444 69.644 51.5564 68.744 50.9804 68.12C50.4044 67.496 49.5644 67.184 48.4604 67.184C47.6444 67.184 46.9724 67.388 46.4444 67.796C45.9164 68.18 45.5684 68.696 45.4004 69.344H39.4604V53.684H56.2724V59.084Z" fill="black" fill-opacity="0.25"/>
<path d="M64.6745 80.288C63.5945 80.288 62.7065 79.976 62.0105 79.352C61.3385 78.704 61.0025 77.912 61.0025 76.976C61.0025 76.016 61.3385 75.212 62.0105 74.564C62.7065 73.916 63.5945 73.592 64.6745 73.592C65.7305 73.592 66.5945 73.916 67.2665 74.564C67.9625 75.212 68.3105 76.016 68.3105 76.976C68.3105 77.912 67.9625 78.704 67.2665 79.352C66.5945 79.976 65.7305 80.288 64.6745 80.288Z" fill="black" fill-opacity="0.25"/>
<path d="M89.8466 59.084H78.6146V64.052C79.0946 63.524 79.7666 63.092 80.6306 62.756C81.4946 62.42 82.4306 62.252 83.4386 62.252C85.2386 62.252 86.7266 62.66 87.9026 63.476C89.1026 64.292 89.9786 65.348 90.5306 66.644C91.0826 67.94 91.3586 69.344 91.3586 70.856C91.3586 73.664 90.5666 75.896 88.9826 77.552C87.3986 79.184 85.1666 80 82.2866 80C80.3666 80 78.6986 79.676 77.2826 79.028C75.8666 78.356 74.7746 77.432 74.0066 76.256C73.2386 75.08 72.8186 73.724 72.7466 72.188H78.7586C78.9026 72.932 79.2506 73.556 79.8026 74.06C80.3546 74.54 81.1106 74.78 82.0706 74.78C83.1986 74.78 84.0386 74.42 84.5906 73.7C85.1426 72.98 85.4186 72.02 85.4186 70.82C85.4186 69.644 85.1306 68.744 84.5546 68.12C83.9786 67.496 83.1386 67.184 82.0346 67.184C81.2186 67.184 80.5466 67.388 80.0186 67.796C79.4906 68.18 79.1426 68.696 78.9746 69.344H73.0346V53.684H89.8466V59.084Z" fill="black" fill-opacity="0.25"/>
<path d="M111.821 54.728V59.66H101.525V64.988H109.229V69.776H101.525V80H95.3687V54.728H111.821Z" fill="black" fill-opacity="0.25"/>
<path d="M143.676 54.728V80H137.52V64.844L131.868 80H126.9L121.212 64.808V80H115.056V54.728H122.328L129.42 72.224L136.44 54.728H143.676Z" fill="black" fill-opacity="0.25"/>
</svg>
