<svg width="161" height="21" viewBox="0 0 161 21" fill="none" xmlns="http://www.w3.org/2000/svg">
<path d="M9.14344 16.52V20H7.05543C5.56743 20 4.40743 19.64 3.57543 18.92C2.74343 18.184 2.32743 16.992 2.32743 15.344V10.016H0.695435V6.608H2.32743V3.344H6.43144V6.608H9.11943V10.016H6.43144V15.392C6.43144 15.792 6.52743 16.08 6.71943 16.256C6.91143 16.432 7.23143 16.52 7.67943 16.52H9.14344Z" fill="black" fill-opacity="0.25"/>
<path d="M13.4934 5.216C12.7734 5.216 12.1814 5.008 11.7174 4.592C11.2694 4.16 11.0454 3.632 11.0454 3.008C11.0454 2.368 11.2694 1.84 11.7174 1.424C12.1814 0.992001 12.7734 0.776001 13.4934 0.776001C14.1974 0.776001 14.7734 0.992001 15.2214 1.424C15.6854 1.84 15.9174 2.368 15.9174 3.008C15.9174 3.632 15.6854 4.16 15.2214 4.592C14.7734 5.008 14.1974 5.216 13.4934 5.216ZM15.5334 6.608V20H11.4294V6.608H15.5334Z" fill="black" fill-opacity="0.25"/>
<path d="M17.6916 13.304C17.6916 11.912 17.9716 10.696 18.5316 9.656C19.1076 8.616 19.8996 7.816 20.9076 7.256C21.9316 6.696 23.0996 6.416 24.4116 6.416C26.0916 6.416 27.4916 6.856 28.6116 7.736C29.7476 8.616 30.4916 9.856 30.8436 11.456H26.4756C26.1076 10.432 25.3956 9.92 24.3396 9.92C23.5876 9.92 22.9876 10.216 22.5396 10.808C22.0916 11.384 21.8676 12.216 21.8676 13.304C21.8676 14.392 22.0916 15.232 22.5396 15.824C22.9876 16.4 23.5876 16.688 24.3396 16.688C25.3956 16.688 26.1076 16.176 26.4756 15.152H30.8436C30.4916 16.72 29.7476 17.952 28.6116 18.848C27.4756 19.744 26.0756 20.192 24.4116 20.192C23.0996 20.192 21.9316 19.912 20.9076 19.352C19.8996 18.792 19.1076 17.992 18.5316 16.952C17.9716 15.912 17.6916 14.696 17.6916 13.304Z" fill="black" fill-opacity="0.25"/>
<path d="M41.2228 20L37.1428 14.384V20H33.0388V2.24H37.1428V12.056L41.1988 6.608H46.2628L40.6948 13.328L46.3108 20H41.2228Z" fill="black" fill-opacity="0.25"/>
<path d="M60.4987 13.088C60.4987 13.472 60.4747 13.872 60.4267 14.288H51.1387C51.2027 15.12 51.4667 15.76 51.9307 16.208C52.4107 16.64 52.9947 16.856 53.6827 16.856C54.7067 16.856 55.4187 16.424 55.8187 15.56H60.1867C59.9627 16.44 59.5547 17.232 58.9627 17.936C58.3867 18.64 57.6587 19.192 56.7787 19.592C55.8987 19.992 54.9147 20.192 53.8267 20.192C52.5147 20.192 51.3467 19.912 50.3227 19.352C49.2987 18.792 48.4987 17.992 47.9227 16.952C47.3467 15.912 47.0587 14.696 47.0587 13.304C47.0587 11.912 47.3387 10.696 47.8987 9.656C48.4747 8.616 49.2747 7.816 50.2987 7.256C51.3227 6.696 52.4987 6.416 53.8267 6.416C55.1227 6.416 56.2747 6.688 57.2827 7.232C58.2907 7.776 59.0747 8.552 59.6347 9.56C60.2107 10.568 60.4987 11.744 60.4987 13.088ZM56.2987 12.008C56.2987 11.304 56.0587 10.744 55.5787 10.328C55.0987 9.912 54.4987 9.704 53.7787 9.704C53.0907 9.704 52.5067 9.904 52.0267 10.304C51.5627 10.704 51.2747 11.272 51.1627 12.008H56.2987Z" fill="black" fill-opacity="0.25"/>
<path d="M70.1278 16.52V20H68.0398C66.5518 20 65.3918 19.64 64.5598 18.92C63.7278 18.184 63.3118 16.992 63.3118 15.344V10.016H61.6798V6.608H63.3118V3.344H67.4158V6.608H70.1038V10.016H67.4158V15.392C67.4158 15.792 67.5118 16.08 67.7038 16.256C67.8958 16.432 68.2158 16.52 68.6638 16.52H70.1278Z" fill="black" fill-opacity="0.25"/>
<path d="M89.5018 6.464C91.1658 6.464 92.4858 6.968 93.4618 7.976C94.4538 8.984 94.9498 10.384 94.9498 12.176V20H90.8698V12.728C90.8698 11.864 90.6378 11.2 90.1738 10.736C89.7258 10.256 89.1018 10.016 88.3018 10.016C87.5018 10.016 86.8698 10.256 86.4058 10.736C85.9578 11.2 85.7338 11.864 85.7338 12.728V20H81.6538V12.728C81.6538 11.864 81.4218 11.2 80.9578 10.736C80.5098 10.256 79.8858 10.016 79.0858 10.016C78.2858 10.016 77.6538 10.256 77.1898 10.736C76.7418 11.2 76.5178 11.864 76.5178 12.728V20H72.4138V6.608H76.5178V8.288C76.9338 7.728 77.4778 7.288 78.1498 6.968C78.8218 6.632 79.5818 6.464 80.4298 6.464C81.4378 6.464 82.3338 6.68 83.1178 7.112C83.9178 7.544 84.5418 8.16 84.9898 8.96C85.4538 8.224 86.0858 7.624 86.8858 7.16C87.6858 6.696 88.5578 6.464 89.5018 6.464Z" fill="black" fill-opacity="0.25"/>
<path d="M97.0041 13.28C97.0041 11.904 97.2601 10.696 97.7721 9.656C98.3001 8.616 99.0121 7.816 99.9081 7.256C100.804 6.696 101.804 6.416 102.908 6.416C103.852 6.416 104.676 6.608 105.38 6.992C106.1 7.376 106.652 7.88 107.036 8.504V6.608H111.14V20H107.036V18.104C106.636 18.728 106.076 19.232 105.356 19.616C104.652 20 103.828 20.192 102.884 20.192C101.796 20.192 100.804 19.912 99.9081 19.352C99.0121 18.776 98.3001 17.968 97.7721 16.928C97.2601 15.872 97.0041 14.656 97.0041 13.28ZM107.036 13.304C107.036 12.28 106.748 11.472 106.172 10.88C105.612 10.288 104.924 9.992 104.108 9.992C103.292 9.992 102.596 10.288 102.02 10.88C101.46 11.456 101.18 12.256 101.18 13.28C101.18 14.304 101.46 15.12 102.02 15.728C102.596 16.32 103.292 16.616 104.108 16.616C104.924 16.616 105.612 16.32 106.172 15.728C106.748 15.136 107.036 14.328 107.036 13.304Z" fill="black" fill-opacity="0.25"/>
<path d="M119.557 20.192C118.389 20.192 117.349 19.992 116.437 19.592C115.525 19.192 114.805 18.648 114.277 17.96C113.749 17.256 113.453 16.472 113.389 15.608H117.445C117.493 16.072 117.709 16.448 118.093 16.736C118.477 17.024 118.949 17.168 119.509 17.168C120.021 17.168 120.413 17.072 120.685 16.88C120.973 16.672 121.117 16.408 121.117 16.088C121.117 15.704 120.917 15.424 120.517 15.248C120.117 15.056 119.469 14.848 118.573 14.624C117.613 14.4 116.813 14.168 116.173 13.928C115.533 13.672 114.981 13.28 114.517 12.752C114.053 12.208 113.821 11.48 113.821 10.568C113.821 9.8 114.029 9.104 114.445 8.48C114.877 7.84 115.501 7.336 116.317 6.968C117.149 6.6 118.133 6.416 119.269 6.416C120.949 6.416 122.269 6.832 123.229 7.664C124.205 8.496 124.765 9.6 124.909 10.976H121.117C121.053 10.512 120.845 10.144 120.493 9.872C120.157 9.6 119.709 9.464 119.149 9.464C118.669 9.464 118.301 9.56 118.045 9.752C117.789 9.928 117.661 10.176 117.661 10.496C117.661 10.88 117.861 11.168 118.261 11.36C118.677 11.552 119.317 11.744 120.181 11.936C121.173 12.192 121.981 12.448 122.605 12.704C123.229 12.944 123.773 13.344 124.237 13.904C124.717 14.448 124.965 15.184 124.981 16.112C124.981 16.896 124.757 17.6 124.309 18.224C123.877 18.832 123.245 19.312 122.413 19.664C121.597 20.016 120.645 20.192 119.557 20.192Z" fill="black" fill-opacity="0.25"/>
<path d="M134.956 16.52V20H132.868C131.38 20 130.22 19.64 129.388 18.92C128.556 18.184 128.14 16.992 128.14 15.344V10.016H126.508V6.608H128.14V3.344H132.244V6.608H134.932V10.016H132.244V15.392C132.244 15.792 132.34 16.08 132.532 16.256C132.724 16.432 133.044 16.52 133.492 16.52H134.956Z" fill="black" fill-opacity="0.25"/>
<path d="M149.866 13.088C149.866 13.472 149.842 13.872 149.794 14.288H140.506C140.57 15.12 140.834 15.76 141.298 16.208C141.778 16.64 142.362 16.856 143.05 16.856C144.074 16.856 144.786 16.424 145.186 15.56H149.554C149.33 16.44 148.922 17.232 148.33 17.936C147.754 18.64 147.026 19.192 146.146 19.592C145.266 19.992 144.282 20.192 143.194 20.192C141.882 20.192 140.714 19.912 139.69 19.352C138.666 18.792 137.866 17.992 137.29 16.952C136.714 15.912 136.426 14.696 136.426 13.304C136.426 11.912 136.706 10.696 137.266 9.656C137.842 8.616 138.642 7.816 139.666 7.256C140.69 6.696 141.866 6.416 143.194 6.416C144.49 6.416 145.642 6.688 146.65 7.232C147.658 7.776 148.442 8.552 149.002 9.56C149.578 10.568 149.866 11.744 149.866 13.088ZM145.666 12.008C145.666 11.304 145.426 10.744 144.946 10.328C144.466 9.912 143.866 9.704 143.146 9.704C142.458 9.704 141.874 9.904 141.394 10.304C140.93 10.704 140.642 11.272 140.53 12.008H145.666Z" fill="black" fill-opacity="0.25"/>
<path d="M156.135 8.84C156.615 8.104 157.215 7.528 157.935 7.112C158.655 6.68 159.455 6.464 160.335 6.464V10.808H159.207C158.183 10.808 157.415 11.032 156.903 11.48C156.391 11.912 156.135 12.68 156.135 13.784V20H152.031V6.608H156.135V8.84Z" fill="black" fill-opacity="0.25"/>
</svg>
